<svg xmlns="http://www.w3.org/2000/svg" viewBox="0 0 700 600">
  <defs>
    <linearGradient id="abg" x1="0" y1="0" x2="0" y2="1">
      <stop offset="0%" stop-color="#87CEEB"/>
      <stop offset="60%" stop-color="#C8E8A0"/>
      <stop offset="100%" stop-color="#7CB870"/>
    </linearGradient>
    <radialGradient id="sunA" cx="70%" cy="25%" r="35%">
      <stop offset="0%" stop-color="#FFE840" stop-opacity="0.7"/>
      <stop offset="100%" stop-color="#FFE840" stop-opacity="0"/>
    </radialGradient>
  </defs>
  <rect width="700" height="600" fill="url(#abg)"/>
  <rect width="700" height="600" fill="url(#sunA)"/>
  <!-- 草地 -->
  <ellipse cx="350" cy="680" rx="600" ry="280" fill="#6AAA58"/>
  <ellipse cx="0" cy="620" rx="250" ry="180" fill="#5A9A48"/>
  <ellipse cx="700" cy="610" rx="240" ry="170" fill="#5A9A48"/>
  <!-- 草 -->
  <g fill="#5A9A48" opacity="0.8">
    <ellipse cx="80" cy="500" rx="12" ry="30" transform="rotate(-15,80,500)"/>
    <ellipse cx="100" cy="495" rx="10" ry="25" transform="rotate(8,100,495)"/>
    <ellipse cx="600" cy="490" rx="12" ry="28" transform="rotate(12,600,490)"/>
    <ellipse cx="620" cy="495" rx="10" ry="24" transform="rotate(-10,620,495)"/>
  </g>
  <!-- 木 -->
  <g transform="translate(580,300)">
    <rect x="-9" y="60" width="18" height="110" fill="#6B4226"/>
    <ellipse cx="0" cy="38" rx="58" ry="75" fill="#4A8840"/>
    <ellipse cx="-18" cy="18" rx="42" ry="55" fill="#5A9850"/>
    <ellipse cx="20" cy="10" rx="40" ry="52" fill="#5A9850"/>
  </g>
  <!-- 雲 -->
  <g opacity="0.9">
    <ellipse cx="180" cy="120" rx="85" ry="46" fill="white"/>
    <ellipse cx="138" cy="138" rx="60" ry="40" fill="white"/>
    <ellipse cx="228" cy="132" rx="64" ry="38" fill="white"/>
  </g>
  <!-- ニワトリ1 (大・茶色) -->
  <g transform="translate(220,400)">
    <ellipse cx="0" cy="20" rx="65" ry="50" fill="#C87830" stroke="#A86020" stroke-width="1.5"/>
    <circle cx="0" cy="-25" r="38" fill="#C87830" stroke="#A86020" stroke-width="1.5"/>
    <polygon points="25,-25 42,-18 25,-12" fill="#F4A020"/>
    <ellipse cx="-2" cy="-54" rx="14" ry="8" fill="#CC2020"/>
    <ellipse cx="-2" cy="-64" rx="8" ry="5" fill="#CC2020"/>
    <circle cx="18" cy="-30" r="7" fill="#2A2010"/>
    <circle cx="20" cy="-32" r="3" fill="white"/>
    <ellipse cx="-52" cy="8" rx="28" ry="15" fill="#B86820" stroke="#A05818" stroke-width="1" transform="rotate(-30,-52,8)"/>
    <ellipse cx="52" cy="8" rx="28" ry="15" fill="#B86820" stroke="#A05818" stroke-width="1" transform="rotate(30,52,8)"/>
    <line x1="-18" y1="70" x2="-26" y2="105" stroke="#F4A020" stroke-width="4" stroke-linecap="round"/>
    <line x1="18" y1="70" x2="12" y2="105" stroke="#F4A020" stroke-width="4" stroke-linecap="round"/>
    <line x1="-26" y1="105" x2="-34" y2="108" stroke="#F4A020" stroke-width="3"/>
    <line x1="-26" y1="105" x2="-22" y2="112" stroke="#F4A020" stroke-width="3"/>
    <line x1="12" y1="105" x2="6" y2="112" stroke="#F4A020" stroke-width="3"/>
  </g>
  <!-- ニワトリ2 (中・白) -->
  <g transform="translate(420,420)">
    <ellipse cx="0" cy="18" rx="55" ry="42" fill="#F0EAD8" stroke="#D8D0B8" stroke-width="1.5"/>
    <circle cx="0" cy="-22" r="32" fill="#F0EAD8" stroke="#D8D0B8" stroke-width="1.5"/>
    <polygon points="21,-22 36,-15 21,-10" fill="#F4A020"/>
    <ellipse cx="-2" cy="-46" rx="11" ry="7" fill="#CC2020"/>
    <circle cx="15" cy="-26" r="5.5" fill="#2A2010"/>
    <circle cx="16" cy="-27" r="2.5" fill="white"/>
    <ellipse cx="-44" cy="6" rx="22" ry="12" fill="#E0D8C0" transform="rotate(-28,-44,6)"/>
    <ellipse cx="44" cy="6" rx="22" ry="12" fill="#E0D8C0" transform="rotate(28,44,6)"/>
    <line x1="-14" y1="60" x2="-20" y2="88" stroke="#F4A020" stroke-width="3.5" stroke-linecap="round"/>
    <line x1="14" y1="60" x2="10" y2="88" stroke="#F4A020" stroke-width="3.5" stroke-linecap="round"/>
  </g>
  <!-- ひよこ -->
  <g transform="translate(320,470)">
    <ellipse cx="0" cy="0" rx="22" ry="18" fill="#FFD840"/>
    <circle cx="0" cy="-20" r="15" fill="#FFD840"/>
    <polygon points="8,-20 16,-15 8,-12" fill="#F4A020"/>
    <circle cx="6" cy="-23" r="3.5" fill="#2A2010"/>
    <line x1="-7" y1="18" x2="-10" y2="36" stroke="#F4A020" stroke-width="2.5" stroke-linecap="round"/>
    <line x1="5" y1="18" x2="4" y2="36" stroke="#F4A020" stroke-width="2.5" stroke-linecap="round"/>
  </g>
  <!-- 太陽光 -->
  <circle cx="580" cy="80" r="55" fill="#FFE840" opacity="0.65"/>
  <circle cx="580" cy="80" r="40" fill="#FFD700" opacity="0.7"/>
</svg>