<svg xmlns="http://www.w3.org/2000/svg" viewBox="0 0 800 540">
  <defs>
    <linearGradient id="fbg1" x1="0" y1="0" x2="0" y2="1">
      <stop offset="0%" stop-color="#87CEEB"/>
      <stop offset="65%" stop-color="#C8E8F5"/>
      <stop offset="100%" stop-color="#7CB87A"/>
    </linearGradient>
  </defs>
  <rect width="800" height="540" fill="url(#fbg1)"/>
  <!-- 農場 -->
  <ellipse cx="400" cy="580" rx="600" ry="250" fill="#7CB870"/>
  <rect x="300" y="310" width="200" height="130" fill="#D4A050" rx="3"/>
  <polygon points="260,310 400,230 540,310" fill="#C08840"/>
  <rect x="368" y="366" width="64" height="74" fill="#8B5E3C"/>
  <!-- 鶏たち -->
  <g transform="translate(160,400)">
    <ellipse cx="0" cy="0" rx="28" ry="20" fill="white"/>
    <circle cx="22" cy="-13" r="15" fill="white"/>
    <polygon points="30,-13 40,-8 30,-5" fill="#F4A020"/>
    <ellipse cx="20" cy="-24" rx="7" ry="4" fill="#E04040"/>
    <circle cx="28" cy="-16" r="4" fill="#333"/>
    <line x1="-5" y1="20" x2="-11" y2="42" stroke="#F4A020" stroke-width="2.5"/>
    <line x1="8" y1="20" x2="3" y2="42" stroke="#F4A020" stroke-width="2.5"/>
  </g>
  <g transform="translate(240,415)">
    <ellipse cx="0" cy="0" rx="24" ry="17" fill="#F5E8C0"/>
    <circle cx="18" cy="-11" r="13" fill="#F5E8C0"/>
    <polygon points="25,-11 34,-7 25,-4" fill="#F4A020"/>
    <line x1="-4" y1="17" x2="-9" y2="36" stroke="#F4A020" stroke-width="2.5"/>
    <line x1="6" y1="17" x2="2" y2="36" stroke="#F4A020" stroke-width="2.5"/>
  </g>
  <g transform="translate(580,405)">
    <ellipse cx="0" cy="0" rx="28" ry="20" fill="white"/>
    <circle cx="22" cy="-13" r="15" fill="white"/>
    <polygon points="30,-13 40,-8 30,-5" fill="#F4A020"/>
    <ellipse cx="20" cy="-24" rx="7" ry="4" fill="#E04040"/>
    <circle cx="28" cy="-16" r="4" fill="#333"/>
    <line x1="-5" y1="20" x2="-11" y2="42" stroke="#F4A020" stroke-width="2.5"/>
    <line x1="8" y1="20" x2="3" y2="42" stroke="#F4A020" stroke-width="2.5"/>
  </g>
  <!-- 雲 -->
  <g opacity="0.9">
    <ellipse cx="150" cy="130" rx="80" ry="42" fill="white"/>
    <ellipse cx="110" cy="148" rx="56" ry="36" fill="white"/>
    <ellipse cx="196" cy="142" rx="60" ry="34" fill="white"/>
  </g>
  <g opacity="0.88">
    <ellipse cx="650" cy="110" rx="88" ry="46" fill="white"/>
    <ellipse cx="608" cy="128" rx="60" ry="38" fill="white"/>
    <ellipse cx="700" cy="122" rx="64" ry="36" fill="white"/>
  </g>
  <!-- 太陽 -->
  <circle cx="680" cy="90" r="50" fill="#FFE840" opacity="0.75"/>
  <!-- オーバーレイテキスト用暗化 -->
  <rect width="800" height="540" fill="rgba(0,0,0,0.12)"/>
  <text x="400" y="510" font-family="serif" font-size="20" fill="white" text-anchor="middle" opacity="0.9" font-weight="bold">たまご物語</text>
</svg>