<svg xmlns="http://www.w3.org/2000/svg" viewBox="0 0 800 540">
  <defs>
    <linearGradient id="fbg2" x1="0" y1="0" x2="0" y2="1">
      <stop offset="0%" stop-color="#C8E8F5"/>
      <stop offset="100%" stop-color="#8CC870"/>
    </linearGradient>
  </defs>
  <rect width="800" height="540" fill="url(#fbg2)"/>
  <!-- 山 -->
  <polygon points="0,400 200,200 400,400" fill="#5A8A5A" opacity="0.8"/>
  <polygon points="200,400 450,150 700,400" fill="#4A7A4A" opacity="0.9"/>
  <polygon points="500,400 720,210 940,400" fill="#5A8A5A" opacity="0.75"/>
  <!-- 雪 -->
  <polygon points="450,150 480,130 510,150" fill="white" opacity="0.9"/>
  <!-- 緑の丘 -->
  <ellipse cx="400" cy="500" rx="600" ry="200" fill="#7CB870"/>
  <!-- 木 -->
  <g transform="translate(100,340)">
    <rect x="-7" y="50" width="14" height="65" fill="#6B4226"/>
    <ellipse cx="0" cy="30" rx="42" ry="55" fill="#5A9A50"/>
  </g>
  <g transform="translate(680,350)">
    <rect x="-6" y="44" width="12" height="56" fill="#6B4226"/>
    <ellipse cx="0" cy="26" rx="36" ry="48" fill="#5A9A50"/>
  </g>
  <!-- 川 -->
  <path d="M0 460 Q200 450 400 455 Q600 460 800 448" fill="none" stroke="#7BBCDC" stroke-width="18" opacity="0.55"/>
  <!-- 地図マーク風 -->
  <circle cx="400" cy="280" r="22" fill="#F2C94C" stroke="white" stroke-width="3"/>
  <circle cx="400" cy="278" r="10" fill="white"/>
  <path d="M400,302 L400,320" stroke="#F2C94C" stroke-width="4"/>
  <!-- 雲 -->
  <g opacity="0.85">
    <ellipse cx="180" cy="120" rx="75" ry="40" fill="white"/>
    <ellipse cx="142" cy="136" rx="52" ry="34" fill="white"/>
    <ellipse cx="222" cy="130" rx="56" ry="32" fill="white"/>
  </g>
  <rect width="800" height="540" fill="rgba(0,0,0,0.1)"/>
  <text x="400" y="510" font-family="serif" font-size="20" fill="white" text-anchor="middle" opacity="0.9" font-weight="bold">産地紹介</text>
</svg>